HIERARCHY
ROOT ui
{
	 OFFSET 0 0 0
	 CHANNELS 3 XPosition YPosition Z Position
	 EndSite
	 {
	 OFFSET 0 -1 0
	 }
}
ROOT li
{
	 OFFSET 0 0 0
	 CHANNELS 3 XPosition YPosition Z Position
	 EndSite
	 {
	 OFFSET 0 -1 0
	 }
}
ROOT ul
{
	 OFFSET 0 0 0
	 CHANNELS 3 XPosition YPosition Z Position
	 EndSite
	 {
	 OFFSET 0 -1 0
	 }
}
ROOT ll
{
	 OFFSET 0 0 0
	 CHANNELS 3 XPosition YPosition Z Position
	 EndSite
	 {
	 OFFSET 0 -1 0
	 }
}
ROOT tt
{
	 OFFSET 0 0 0
	 CHANNELS 3 XPosition YPosition Z Position
	 EndSite
	 {
	 OFFSET 0 -1 0
	 }
}
ROOT tb
{
	 OFFSET 0 0 0
	 CHANNELS 3 XPosition YPosition Z Position
	 EndSite
	 {
	 OFFSET 0 -1 0
	 }
}
ROOT td
{
	 OFFSET 0 0 0
	 CHANNELS 3 XPosition YPosition Z Position
	 EndSite
	 {
	 OFFSET 0 -1 0
	 }
}
ROOT v
{
	 OFFSET 0 0 0
	 CHANNELS 3 XPosition YPosition Z Position
	 EndSite
	 {
	 OFFSET 0 -1 0
	 }
}
ROOT bn
{
	 OFFSET 0 0 0
	 CHANNELS 3 XPosition YPosition Z Position
	 EndSite
	 {
	 OFFSET 0 -1 0
	 }
}
MOTION
Frames: 13
Frame Time: 0.002
-0.06536126708984374	0.0017994860410690309	0		0.5507998657226563	-2.605684814453125	0		-1.0182408447265625	0.28504937744140624	0		-0.2941048583984375	-3.129135986328125	0		2.019573486328125	-1.224447265625	0		3.448040283203125	-0.8017150268554688	0		4.87616357421875	-0.2009578399658203	0		5.85459326171875	0.32133798217773435	0		-0.29609515380859375	5.9189013671875	0		
0.0189785099029541	-0.0019126060009002686	0		0.5821597900390625	-2.60162646484375	0		-0.9988690185546875	0.2833423767089844	0		-0.4113575744628906	-3.096822509765625	0		1.9860633544921875	-1.21446826171875	0		3.452450927734375	-0.7983532104492187	0		4.88554931640625	-0.2007200164794922	0		5.86200439453125	0.32166281127929686	0		-0.1621966247558594	5.93846142578125	0		
-0.05866366195678711	8.061929941177369E-4	0		0.5814061889648438	-2.601080810546875	0		-1.01443359375	0.2901656188964844	0		-0.2860820617675781	-3.094132568359375	0		1.9644339599609375	-1.20865576171875	0		3.407223388671875	-0.8332408447265625	0		4.86153466796875	-0.2229722900390625	0		5.86152783203125	0.3222962951660156	0		-0.1646316680908203	5.94106201171875	0		
0.009614975929260253	0.001343973994255066	0		0.6185733642578125	-2.602097900390625	0		-0.9823367309570312	0.27827685546875	0		-0.43430911254882815	-3.052331787109375	0		1.9496373291015625	-1.209936767578125	0		3.40919677734375	-0.8508225708007813	0		4.8667080078125	-0.2286479034423828	0		5.86151611328125	0.29006143188476563	0		-0.29848184204101563	5.921640625	0		
-0.0672704849243164	-0.0039332230091094975	0		0.601613525390625	-2.6072978515625	0		-0.9831166381835937	0.27888623046875	0		-0.29830059814453125	-3.059801513671875	0		1.926098876953125	-1.190076416015625	0		3.397960693359375	-0.8781989135742188	0		4.8577021484375	-0.24210220336914062	0		5.8531064453125	0.29102426147460936	0		-0.3122467041015625	5.91142529296875	0		
0.012910743713378907	-0.0025708439350128173	0		0.576771240234375	-2.60137255859375	0		-1.0150194702148438	0.2749673461914062	0		-0.45379498291015624	-3.028874755859375	0		1.925222412109375	-1.1895537109375	0		3.40616845703125	-0.8728580932617187	0		4.8586435546875	-0.25569886779785156	0		5.8632998046875	0.3068930969238281	0		-0.29776907348632814	5.9207900390625	0		
0.007111320018768311	0.0030894129276275635	0		0.5710601806640625	-2.58473046875	0		-1.01588671875	0.27558343505859373	0		-0.43437060546875	-3.002580810546875	0		1.9225230712890624	-1.1749970703125	0		3.39593505859375	-0.8942360229492188	0		4.84776171875	-0.2551077728271484	0		5.86633642578125	0.32303762817382814	0		-0.16613446044921876	5.94238671875	0		
0.011140928268432618	-0.0013978240489959718	0		0.5700919189453125	-2.58415869140625	0		-1.0167730102539063	0.27620065307617186	0		-0.4611661376953125	-2.989587890625	0		1.9049908447265624	-1.1482095947265625	0		3.400802734375	-0.9078345336914062	0		4.84067919921875	-0.26656634521484374	0		5.859083984375	0.2928616943359375	0		-0.16587359619140624	5.94196435546875	0		
0.010243930816650391	-8.082470297813416E-4	0		0.5940452270507812	-2.588963134765625	0		-0.9847268676757812	0.27231826782226565	0		-0.44481341552734377	-2.967245849609375	0		1.8951241455078125	-1.1435360107421875	0		3.394577880859375	-0.9272599487304688	0		4.84953076171875	-0.28225933837890627	0		5.85844287109375	0.29360198974609375	0		-0.18077256774902345	5.9317724609375	0		
0.0013738590478897094	9.039080142974853E-4	0		0.5842569580078125	-2.5772529296875	0		-1.0226013793945312	0.27349832153320314	0		-0.4844716796875	-2.94605224609375	0		1.9214317626953126	-1.1284085693359376	0		3.399453125	-0.9408507080078125	0		4.84042529296875	-0.29567681884765623	0		5.84996337890625	0.29463681030273436	0		-0.3347232055664062	5.91869580078125	0		
0.013417125701904297	-0.00470189905166626	0		0.5770932006835937	-2.591584716796875	0		-1.012595947265625	0.2649519958496094	0		-0.46542041015625	-2.945751708984375	0		1.8838602294921876	-1.1063099365234375	0		3.40013623046875	-0.9683816528320313	0		4.83850732421875	-0.29820535278320315	0		5.85787109375	0.2898695373535156	0		-0.29937982177734374	5.921748046875	0		
0.012584881782531738	-0.00411051082611084	0		0.5474923095703125	-2.570570068359375	0		-1.0134201049804688	0.265573974609375	0		-0.48809371948242186	-2.928812255859375	0		1.8941922607421875	-1.0929437255859376	0		3.423440185546875	-0.9572587280273438	0		4.8435439453125	-0.3058485107421875	0		5.86320947265625	0.326703857421875	0		-0.28588433837890626	5.9321337890625	0		
0.004991137981414795	0.009586973190307617	0		0.6146236572265625	-2.570034912109375	0		-1.0142047729492187	0.2661990051269531	0		-0.4716468505859375	-2.906466796875	0		1.891578125	-1.0783834228515625	0		3.37934619140625	-0.9741170654296875	0		4.83555810546875	-0.3173037109375	0		5.858978515625	0.3119639892578125	0		-0.16830149841308595	5.94393017578125	0		
